# xmcd
#
# Track frame offsets:
#	182
#	18310
#	29857
#	44230
#	56652
#	75625
#	89822
#	102457
#	116175
#	130550
#	141400
#	153995
#	164670
#	177320
#
# Disc length: 2522 seconds
#
# Revision: 1
# Processed by: cddbd v1.5.1PL0 Copyright (c) Steve Scherf et al.
# Submitted via: audiograbber 1.83.01
#
DISCID=d109d80e
DTITLE=Blues Colection - Blues Collection
DYEAR=1900
DGENRE=Blues
TTITLE0=Big Joe Turner - Diney Brown Blues
TTITLE1=Eddie Clean Head Vinson - Person To Person
TTITLE2=Nyles Jones - The Welfare Blues
TTITLE3=Johnny Otis - Fanny Mae
TTITLE4=Big Daddy Rucker - Best Friend Blues
TTITLE5=Nyles Jones - Deprit and Betty
TTITLE6=Johnny Otis - Baby, I Got News For You
TTITLE7=Big Joe Turner - You're Still My Baby
TTITLE8=Johnny Otis - Cherry Red
TTITLE9=Nyles Jones - Your Poodle Dog
TTITLE10=Eddie Clean Head Vinson - Clean Head Blues
TTITLE11=Big Daddy Rucker - You Got Me Movin
TTITLE12=Nyles Jones - Ain't Gonna Let No Woman
TTITLE13=Johnny Otis - Linda Lu
EXTD=Spotlite\nA trademark of\nRTV Communications Group
EXTT0=
EXTT1=
EXTT2=
EXTT3=
EXTT4=
EXTT5=
EXTT6=
EXTT7=
EXTT8=
EXTT9=
EXTT10=
EXTT11=
EXTT12=
EXTT13=
PLAYORDER=
